HIERARCHY
ROOT Hips
{
	OFFSET 0.000000 8.830580 0.000000
	CHANNELS 6 Xposition Yposition Zposition Zrotation Yrotation Xrotation 
	JOINT Spine
	{
		OFFSET 0.000000 0.010000 0.000000
		CHANNELS 3 Zrotation Yrotation Xrotation
		JOINT Spine1
		{
			OFFSET 0.000000 2.459130 0.000000
			CHANNELS 3 Zrotation Yrotation Xrotation
			JOINT Neck
			{
				OFFSET 0.000000 2.484630 0.000000
				CHANNELS 3 Zrotation Yrotation Xrotation
				JOINT Head_virtual
				{
					OFFSET 0.000000 0.000000 0.000000
					CHANNELS 3 Zrotation Yrotation Xrotation
					JOINT Head
					{
						OFFSET 0.000000 0.927525 0.000000
						CHANNELS 3 Zrotation Yrotation Xrotation
						End Site
						{
							OFFSET 0.000000 0.000000 0.000000
						}
					}
				}
				JOINT LeftUpArm_virtual
				{
					OFFSET 0.000000 0.000000 0.000000
					CHANNELS 3 Zrotation Yrotation Xrotation
					JOINT LeftUpArm
					{
						OFFSET 1.248820 0.000000 0.000000
						CHANNELS 3 Zrotation Yrotation Xrotation
						JOINT LeftForeArm
						{
							OFFSET 2.597580 0.000000 0.000000
							CHANNELS 3 Zrotation Yrotation Xrotation
							JOINT LeftHand
							{
								OFFSET 2.455420 0.000000 0.000000
								CHANNELS 3 Zrotation Yrotation Xrotation
								End Site
								{
									OFFSET 0.000000 0.000000 0.000000
								}
							}
						}
					}
				}
				JOINT RightUpArm_virtual
				{
					OFFSET -0.000000 -0.000000 -0.000000
					CHANNELS 3 Zrotation Yrotation Xrotation
					JOINT RightUpArm
					{
						OFFSET -1.248820 -0.000000 -0.000000
						CHANNELS 3 Zrotation Yrotation Xrotation
						JOINT RightForeArm
						{
							OFFSET -2.597580 -0.000000 -0.000000
							CHANNELS 3 Zrotation Yrotation Xrotation
							JOINT RightHand
							{
								OFFSET -2.455420 -0.000000 -0.000000
								CHANNELS 3 Zrotation Yrotation Xrotation
								End Site
								{
									OFFSET 0.000000 0.000000 0.000000
								}
							}
						}
					}
				}
			}
		}
	}
	JOINT LeftUpLeg
	{
		OFFSET 1.271939 0.000000 0.000000
		CHANNELS 3 Zrotation Yrotation Xrotation
		JOINT LeftLowLeg
		{
			OFFSET 0.000000 -4.342910 0.000000
			CHANNELS 3 Zrotation Yrotation Xrotation
			JOINT LeftFoot
			{
				OFFSET 0.000000 -4.487670 0.000000
				CHANNELS 3 Zrotation Yrotation Xrotation
				JOINT LeftToeBase
				{
					OFFSET 0.000000 0.000000 1.515070
					CHANNELS 3 Zrotation Yrotation Xrotation
					End Site
					{
						OFFSET 0.000000 0.000000 0.000000
					}
				}
			}
		}
	}
	JOINT RightUpLeg
	{
		OFFSET -1.271939 0.000000 0.000000
		CHANNELS 3 Zrotation Yrotation Xrotation
		JOINT RightLowLeg
		{
			OFFSET 0.000000 -4.342910 0.000000
			CHANNELS 3 Zrotation Yrotation Xrotation
			JOINT RightFoot
			{
				OFFSET 0.000000 -4.487670 0.000000
				CHANNELS 3 Zrotation Yrotation Xrotation
				JOINT RightToeBase
				{
					OFFSET 0.000000 0.000000 1.515070
					CHANNELS 3 Zrotation Yrotation Xrotation
					End Site
					{
						OFFSET 0.000000 0.000000 0.000000
					}
				}
			}
		}
	}
}
MOTION
Frames: 7
Frame Time: 0.041667
-15.898326 9.020885 39.583246 -176.033919 -13.232102 -168.993551 7.744275 0.917704 -18.087500 -3.109646 1.394584 3.140311 0.000000 0.000000 0.000000 8.359181 4.765018 -2.296452 -12.702998 -6.363716 -69.059464 -26.611099 2.495410 5.848970 -48.608799 -1.864680 4.763000 0.000000 -13.353900 0.000000 1.743190 9.900980 20.632000 28.914801 -5.165910 2.043810 49.359501 0.615036 16.821014 0.000000 13.956200 0.000000 -2.201700 -5.362370 11.028800 5.882510 -23.195112 -11.017999 0.000000 0.000000 8.005580 -0.811893 18.406052 -3.331193 0.000000 0.000000 -11.025810 0.412924 36.225376 -12.594058 0.000000 0.000000 6.441310 5.601932 -17.635191 4.337715 0.000000 0.000000 -17.495940 
-15.895808 9.020460 39.587879 -176.033393 -13.608071 -169.055929 7.739924 0.757137 -17.949720 -3.103351 1.205166 2.973618 0.000000 0.000000 0.000000 8.418279 4.720098 -2.229064 -12.700371 -6.375385 -69.059303 -26.687300 2.352050 5.891760 -48.341801 -2.286290 5.105988 0.000000 -13.600900 0.000000 1.718080 9.844110 20.926600 29.010300 -5.117580 2.107180 48.910500 0.946089 17.467987 0.000000 14.438100 0.000000 -2.424360 -5.186470 10.105700 6.003003 -23.581594 -11.182698 0.000000 0.000000 8.187290 -0.939463 18.351019 -3.382816 0.000000 0.000000 -11.017050 0.557267 35.856063 -12.471586 0.000000 0.000000 6.405020 5.562655 -17.651952 4.337699 0.000000 0.000000 -17.501420 
-15.895512 9.019932 39.583676 -176.030436 -13.605730 -168.991666 7.745830 0.787428 -18.091367 -3.110585 1.257529 2.996162 0.000000 0.000000 0.000000 8.439599 4.689169 -2.218126 -12.651060 -6.376302 -68.979120 -26.768101 2.201150 5.976030 -48.014198 -2.723390 5.765015 0.000000 -13.939000 0.000000 1.721890 9.724750 20.929501 29.108400 -5.045620 2.200000 48.442402 1.198720 18.160004 0.000000 15.058200 0.000000 -2.813090 -5.026980 9.736080 6.028326 -23.592724 -11.204785 0.000000 0.000000 8.149600 -0.920256 18.394654 -3.400012 0.000000 0.000000 -11.014400 0.544397 35.841532 -12.487051 0.000000 0.000000 6.346470 5.525341 -17.643817 4.340233 0.000000 0.000000 -17.480260 
-15.895647 9.019176 39.580043 -176.039405 -13.565607 -168.948218 7.760668 0.851894 -18.210084 -3.156132 1.328389 3.031686 0.000000 0.000000 0.000000 8.493153 4.601254 -2.280619 -12.627896 -6.388203 -68.923295 -26.865700 2.025470 6.094290 -47.667400 -3.171500 6.605011 0.000000 -14.372400 0.000000 2.069800 9.666050 20.885200 29.183701 -4.972200 2.292540 48.056099 1.537450 18.536011 0.000000 15.513100 0.000000 -3.175630 -4.850950 9.261890 6.022557 -23.597991 -11.193419 0.000000 0.000000 8.106950 -0.901527 18.460184 -3.421027 0.000000 0.000000 -10.985990 0.515179 35.895429 -12.484481 0.000000 0.000000 6.287870 5.534344 -17.659150 4.314255 0.000000 0.000000 -17.463110 
-15.895507 9.018472 39.577981 -176.042513 -13.583509 -168.915261 7.786502 0.883790 -18.289852 -3.202340 1.349189 3.048626 0.000000 0.000000 0.000000 8.500512 4.589089 -2.302564 -12.600064 -6.378146 -68.872213 -26.977900 1.867470 6.251100 -47.333801 -3.693900 7.101013 0.000000 -14.783700 0.000000 2.415910 9.592400 20.879601 29.262699 -4.878700 2.390220 47.651100 1.901090 18.911011 0.000000 15.953700 0.000000 -3.758360 -4.208200 6.929350 6.044104 -23.665090 -11.229021 0.000000 0.000000 8.121830 -0.914752 18.512101 -3.449171 0.000000 0.000000 -10.990740 0.504994 35.870841 -12.482037 0.000000 0.000000 6.241120 5.559151 -17.636130 4.303836 0.000000 0.000000 -17.471680 
-15.895247 9.017938 39.575618 -176.042850 -13.598876 -168.904137 7.808731 0.907149 -18.359983 -3.240509 1.366962 3.096472 0.000000 0.000000 0.000000 8.523489 4.565925 -2.362960 -12.581210 -6.357748 -68.836387 -27.077499 1.719430 6.400820 -47.062199 -4.273790 7.476990 0.000000 -15.120600 0.000000 3.030510 9.377090 21.742500 29.335300 -4.761600 2.498560 47.269001 2.269070 18.802002 0.000000 16.575001 0.000000 -3.647590 -4.738620 6.803440 6.060040 -23.736251 -11.235882 0.000000 0.000000 8.128090 -0.906082 18.571038 -3.458910 0.000000 0.000000 -11.038220 0.513702 35.877551 -12.456230 0.000000 0.000000 6.200920 5.550561 -17.663092 4.293564 0.000000 0.000000 -17.468130 
-15.895215 9.017961 39.572219 -176.052179 -13.568351 -168.923293 7.820751 0.923258 -18.420578 -3.276534 1.390239 3.192881 0.000000 0.000000 0.000000 8.529459 4.608673 -2.392083 -12.591562 -6.292241 -68.814817 -27.175699 1.636370 6.503110 -46.773899 -4.810440 7.924011 0.000000 -15.592900 0.000000 3.459770 9.282330 21.882000 29.326500 -4.636610 2.519250 47.041500 2.588000 19.277008 0.000000 16.810101 0.000000 -4.346650 -4.251460 6.850850 6.043454 -23.818665 -11.169955 0.000000 0.000000 8.092850 -0.830462 18.705827 -3.426918 0.000000 0.000000 -11.063440 0.528692 35.918662 -12.395198 0.000000 0.000000 6.172020 5.547305 -17.668721 4.287085 0.000000 0.000000 -17.451580 
